<svg width="113" height="52" viewBox="0 0 113 52" fill="none" xmlns="http://www.w3.org/2000/svg">
<path d="M42.9661 21.6952H50.0498V24.6823H38.0332V22.2414L44.9803 13.8093H38.3917V10.8223H49.7937V13.2461L42.9661 21.6952Z" fill="#23305F"/>
<path d="M61.9475 10.8055H65.3613V24.6825H61.9475V23.0781C60.7527 24.3753 59.2677 25.0069 57.5096 25.0069C55.5296 25.0069 53.8739 24.3241 52.5766 22.9244C51.2794 21.5248 50.6478 19.7667 50.6478 17.6843C50.6478 15.6019 51.3135 13.8608 52.6108 12.5124C53.908 11.1298 55.5637 10.447 57.5266 10.447C59.2506 10.447 60.7356 11.1127 61.9646 12.4612V10.8055H61.9475ZM60.8721 14.902C60.1382 14.1169 59.2164 13.7243 58.0899 13.7243C56.9463 13.7243 56.0246 14.0998 55.2906 14.902C54.5737 15.6872 54.2152 16.626 54.2152 17.7355C54.2152 18.862 54.5737 19.8008 55.3077 20.586C56.0416 21.3712 56.9633 21.7638 58.0899 21.7638C59.2164 21.7638 60.1211 21.3882 60.8721 20.586C61.6061 19.8008 61.9987 18.862 61.9987 17.7355C61.9987 16.626 61.6061 15.6872 60.8721 14.902Z" fill="#23305F"/>
<path d="M77.429 5.32605H81.0135V24.6823H77.4973V22.9754C76.3708 24.3238 74.954 25.0066 73.1959 25.0066C71.233 25.0066 69.5773 24.3238 68.2801 22.9412C66.9828 21.5416 66.3171 19.8176 66.3171 17.7181C66.3171 15.6528 66.9828 13.9288 68.2801 12.5292C69.6115 11.1295 71.233 10.4467 73.1959 10.4467C74.8687 10.4467 76.2683 11.1124 77.429 12.4097V5.32605ZM76.5415 14.9017C75.8246 14.1166 74.9199 13.724 73.7592 13.724C72.5985 13.724 71.6939 14.0995 70.9599 14.9017C70.243 15.6698 69.8846 16.6086 69.8846 17.7352C69.8846 18.8788 70.243 19.8176 70.9599 20.6199C71.6939 21.388 72.6156 21.7635 73.7592 21.7635C74.9028 21.7635 75.8246 21.388 76.5415 20.6199C77.2584 19.8347 77.6168 18.8959 77.6168 17.7352C77.6168 16.6086 77.2584 15.6698 76.5415 14.9017Z" fill="#23305F"/>
<path d="M96.2554 18.9986H85.8434C86.3554 20.9615 87.7039 21.9515 89.8887 21.9515C91.3908 21.9515 93.1659 21.3712 94.3778 20.5519L95.8116 23.0781C94.0535 24.3582 92.0394 24.9898 89.7521 24.9898C87.3113 24.9898 85.4508 24.2729 84.1535 22.8732C82.8563 21.4736 82.2247 19.7496 82.2247 17.7355C82.2247 15.6189 82.8904 13.895 84.2389 12.5124C85.5873 11.1298 87.3113 10.447 89.462 10.447C91.4761 10.447 93.1489 11.0786 94.4461 12.3246C95.7434 13.5706 96.409 15.2605 96.409 17.4112C96.3749 17.9062 96.3237 18.4353 96.2554 18.9986ZM85.8434 16.3358H92.8928C92.5685 14.5265 91.2713 13.4341 89.4278 13.4341C87.6185 13.417 86.2701 14.5265 85.8434 16.3358Z" fill="#23305F"/>
<path d="M33.4245 10.8055H36.8383V24.6825H33.4245V23.0781C32.2297 24.3753 30.7447 25.0069 28.9866 25.0069C27.0066 25.0069 25.3509 24.3241 24.0537 22.9244C22.7564 21.5248 22.1249 19.7667 22.1249 17.6843C22.1249 15.6019 22.7906 13.8608 24.0878 12.5124C25.3851 11.1298 27.0407 10.447 29.0037 10.447C30.7276 10.447 32.2126 11.1127 33.4416 12.4612V10.8055H33.4245ZM32.3663 14.902C31.6323 14.1169 30.7106 13.7243 29.584 13.7243C28.4404 13.7243 27.5187 14.0998 26.7847 14.902C26.0678 15.6872 25.7094 16.626 25.7094 17.7355C25.7094 18.862 26.0678 19.8008 26.8018 20.586C27.5357 21.3712 28.4575 21.7638 29.584 21.7638C30.7106 21.7638 31.6152 21.3882 32.3663 20.586C33.1002 19.8008 33.4928 18.862 33.4928 17.7355C33.4757 16.626 33.1002 15.6872 32.3663 14.902Z" fill="#23305F"/>
<path d="M19.1722 26.867C17.2434 26.867 15.3658 22.3267 13.4541 22.3267C11.8837 22.3267 10.2622 26.867 8.67477 26.867C8.67477 26.7988 8.67477 26.7305 8.67477 26.6793C8.72598 25.3138 8.82839 23.9483 8.82839 22.5827C8.82839 21.422 8.76012 20.2614 8.6577 19.1007C8.6065 18.5374 8.45288 17.957 8.29926 17.4108C8.1115 16.7281 7.63356 16.2501 7.07029 15.8405C6.13149 15.1407 5.07322 14.6286 4.01494 14.0995C3.02494 13.6045 2.03494 13.1436 1.11322 12.512C0.720629 12.2389 0.328045 11.9488 0.123217 11.505C-0.149887 10.9417 0.0378709 10.4126 0.618216 10.1224C1.16442 9.84928 1.76183 9.71273 2.35925 9.67859C3.41753 9.59324 4.4758 9.5591 5.51701 9.47376C6.08029 9.42255 6.62649 9.32014 7.1727 9.21773C7.80425 9.09824 8.43581 8.94462 9.06736 8.77393C10.1086 8.48376 11.0644 8.0229 11.9862 7.47669C13.6248 6.50376 15.1098 5.29186 16.6289 4.16531C17.636 3.43134 18.6772 2.73151 19.7184 2.03169C19.9232 1.89513 20.1793 1.80979 20.4182 1.74151C21.1863 1.55375 21.8179 2.11703 21.6984 2.9022C21.6472 3.31186 21.5106 3.73858 21.357 4.13117C20.6913 5.821 19.855 7.44255 18.9674 9.02997C18.6089 9.67859 18.2846 10.3443 17.9603 11.01C17.6701 11.6244 17.5848 12.2901 17.5506 12.9558C17.4824 14.2701 17.5165 15.5845 17.6701 16.8988C17.7896 17.9058 17.875 18.93 18.0286 19.937C18.2163 21.2343 18.4212 22.5486 18.626 23.8458C18.7796 24.7846 18.9503 25.7234 19.1039 26.6622C19.1722 26.7134 19.1722 26.7988 19.1722 26.867Z" fill="#47B449"/>
<path d="M12.9594 3.36315C12.9594 5.2066 11.4574 6.70867 9.59684 6.70867C7.75339 6.70867 6.23425 5.18953 6.23425 3.36315C6.23425 1.48556 7.78753 -0.0335736 9.64805 0.000564309C11.4403 0.000564309 12.9936 1.50263 12.9594 3.36315Z" fill="#47B449"/>
<path d="M50.6302 40.5908C50.6302 38.4913 51.6715 30.4006 54.8292 27.3794C55.6485 26.5942 56.8263 26.6283 56.5361 28.2158C56.1435 30.3494 53.3954 34.1728 52.0128 35.8968C51.552 37.3989 51.2789 38.6449 51.1935 39.1228C51.4496 38.679 51.7397 38.0134 52.0811 37.3989C52.559 36.4942 53.3613 35.5725 54.539 35.5725C55.4096 35.5725 56.0923 36.187 56.2289 37.2965C57.2189 36.8697 58.2601 36.5284 59.3354 36.2894C59.8475 36.187 59.7622 36.6649 59.472 36.7332C58.4478 36.9721 57.3042 37.3306 56.2289 37.8427C56.2118 38.2182 56.1435 38.6278 56.0411 39.0546C54.9658 43.0487 52.4396 44.1582 51.6032 43.117C50.5108 41.7344 53.0199 39.0375 54.9658 37.9109C55.034 37.1258 54.7268 36.4601 54.2318 36.3235C53.3954 36.0846 52.6273 37.3477 52.303 38.0304C51.9275 38.7985 51.5861 39.652 51.3301 40.3689C51.2618 40.5566 51.2106 40.7273 51.1594 40.9322C51.1423 41.1711 50.6302 41.3589 50.6302 40.5908ZM54.8292 38.6449C53.4808 39.5496 51.569 41.7856 52.3201 42.3489C52.7297 42.7073 53.8222 41.7515 54.7097 39.0034C54.7609 38.8668 54.7951 38.7815 54.8292 38.6449ZM52.5078 34.3606C53.4125 33.0463 54.4708 31.4077 55.1877 30.008C56.1947 28.028 55.6656 28.0451 54.5561 29.8032C53.7709 31.0492 53.0711 32.722 52.5078 34.3606Z" fill="#23305F"/>
<path d="M61.0251 38.9519C60.7349 39.3787 60.3253 40.0273 59.9156 40.6076C59.3353 41.4781 58.6354 42.178 57.782 41.8707C57.0822 41.5976 57.0992 40.4199 57.2358 39.8395C57.4747 38.7642 57.9527 37.6547 58.3111 37.245C58.7549 36.6988 59.4548 37.0573 59.3182 37.7571C59.1646 38.3033 58.1746 39.703 58.1234 40.8978C58.021 41.4269 58.3965 41.2733 58.6696 41.0344C59.3523 40.4711 60.5813 39.0202 61.0934 38.2009C61.247 37.9961 61.6908 37.7571 61.6908 38.4228C61.6737 39.1056 61.5713 40.3345 61.3153 41.8025C62.7661 40.5052 64.7461 39.3445 66.2994 38.8325C67.0846 38.5423 66.8285 39.1909 66.5384 39.2592C64.8827 39.6518 62.5954 41.1709 61.1787 42.6388C60.5984 45.6942 59.4377 49.4835 57.4577 51.344C56.6384 52.1292 55.4606 52.095 55.7508 50.5076C56.1434 48.374 58.8915 44.5506 60.2741 42.8266C60.6666 41.5464 61.008 39.8054 61.1787 39.0373C61.2641 38.6106 61.1787 38.713 61.0251 38.9519ZM59.7961 44.3287C58.8915 45.6259 57.8332 47.2987 57.1163 48.6813C56.1092 50.6613 56.6384 50.6442 57.7479 48.8861C58.533 47.64 59.2158 45.9673 59.7961 44.3287Z" fill="#23305F"/>
<path d="M72.6319 40.6246C72.6319 40.6416 72.6148 40.6587 72.6148 40.6758C74.0145 40.9318 75.7043 41.2561 77.4283 41.8365C79.3912 42.5192 82.805 44.0042 83.556 46.3256C83.8803 47.3156 82.9245 47.8277 82.7367 47.0596C82.054 44.4651 79.34 42.9972 76.865 42.1949C75.4141 41.717 73.9462 41.4439 72.4612 41.2049C71.8296 43.1679 71.3859 44.943 71.0615 46.2573C70.6178 48.1861 70.5836 49.8077 70.9079 50.7465C71.4371 51.5658 70.5153 52.1461 69.9521 51.0366C69.5083 50.2515 69.5765 48.4251 69.9521 46.0354C70.191 44.5846 70.5495 42.8606 70.9933 40.983C70.43 40.8977 69.8667 40.8294 69.3205 40.727C67.8867 40.488 68.7572 38.8665 69.679 39.6004C70.1569 39.8394 70.669 39.9418 71.2322 40.0272C72.2564 35.8453 73.6731 31.2708 74.9362 28.3861C75.3971 27.3108 76.8138 27.6009 76.0115 29.0177C75.9603 29.1713 73.6731 34.6675 71.9662 40.0613H72.2905C72.8538 38.3544 73.5024 36.6816 74.2022 35.2649C74.9191 33.797 76.0969 31.5951 77.5478 30.5368C79.8009 28.8982 83.7609 30.5539 82.7879 33.797C81.7126 37.3303 76.2505 40.2832 72.6319 40.6246ZM71.9491 41.1025L71.659 41.0684C70.925 43.5604 70.3788 45.933 70.2934 47.7423C70.43 46.6499 71.0445 43.9872 71.9491 41.1025ZM72.8367 40.0101C76.6943 39.6687 81.2347 36.9206 81.6614 33.5068C82.0028 30.7758 79.0328 30.093 77.2234 31.6634C76.0969 32.6192 75.2605 34.3091 74.7143 35.4697C73.9803 36.9718 73.3659 38.491 72.8367 40.0101Z" fill="#23305F"/>
<path d="M83.1469 39.3275C83.7614 38.0644 85.1781 37.1768 86.6631 37.6036C87.0898 37.8937 86.5436 38.3205 86.0998 38.0132C84.649 37.2793 84.0003 39.9932 84.0515 41.0344C84.0857 41.4611 84.3588 41.5636 84.7002 41.2222C85.1269 40.7955 85.4683 39.7884 85.5024 39.4129C84.0174 38.9349 85.4853 37.5353 85.8096 38.9861C86.8338 39.1398 88.3188 39.0544 89.2917 38.7984C90.4183 38.5082 89.8891 39.208 89.5477 39.2763C88.5236 39.5324 87.0215 39.6348 85.895 39.4641C85.895 40.1639 85.5536 41.2051 84.9562 41.7513C84.4271 42.2463 83.3517 42.3999 82.9591 41.5977C82.6348 40.9832 82.8396 40.0103 83.1469 39.3275Z" fill="#23305F"/>
<path d="M93.2341 37.3984C92.8927 37.2107 92.5002 37.296 92.1588 37.4667C91.5102 37.8252 90.9127 38.6445 90.5031 39.0883C90.0593 39.5321 89.479 39.4979 89.8545 39.0371C90.6396 38.1324 91.3395 37.3302 92.4489 36.9547C94.941 36.0841 95.4019 39.1224 92.3807 40.6757C93.1658 40.8293 93.6779 41.1024 94.0364 41.4438C95.6238 40.2831 97.1258 39.3102 98.2012 38.8322C98.9693 38.5421 98.7303 39.259 98.4402 39.259C98.0476 39.259 96.3065 40.3514 94.3436 41.8534C95.5726 44.0553 91.5784 48.4421 89.0522 50.0978C87.4307 51.1731 86.2358 51.1219 85.8433 50.4904C84.5972 48.5957 91.5614 43.2872 93.7803 41.6486C93.3195 41.2902 92.3807 41.3926 91.4589 41.4267C90.6567 41.7169 90.4177 41.0171 90.7591 40.7269C90.8786 40.6416 94.19 37.9788 93.2341 37.3984ZM94.0193 42.0583C90.3836 44.7722 85.9969 48.664 86.765 49.6198C86.9527 49.8588 87.5331 49.7052 88.506 49.0224C89.7008 48.2031 93.1488 45.1307 93.8657 43.0824C94.0193 42.6557 94.0705 42.3143 94.0193 42.0583Z" fill="#23305F"/>
<path d="M101.445 37.04C101.888 37.1424 102.093 37.3814 102.145 37.6545C102.247 38.286 101.155 38.8493 100.045 38.8152C99.7378 39.5491 99.3964 40.8293 100.352 41.2219C101.854 41.8534 105.012 39.1907 105.302 38.8152C105.661 38.3543 106.173 38.5591 105.661 39.1053C104.551 40.4196 101.718 42.2119 99.7037 41.7852C97.9455 41.3584 98.3552 39.5321 99.2087 38.3202C99.6525 37.6715 100.523 36.8522 101.445 37.04ZM100.267 38.3884C100.745 38.4567 101.274 37.8252 101.137 37.5179C101.052 37.3302 100.779 37.4155 100.267 38.3884Z" fill="#23305F"/>
<path d="M108.562 37.04C109.006 37.1424 109.211 37.3814 109.262 37.6545C109.365 38.286 108.272 38.8493 107.163 38.8152C106.855 39.5491 106.514 40.8293 107.47 41.2219C108.972 41.8534 112.13 39.1907 112.42 38.8152C112.778 38.3543 113.29 38.5591 112.778 39.1053C111.669 40.4196 108.835 42.2119 106.821 41.7852C105.063 41.3584 105.473 39.5321 106.326 38.3202C106.77 37.6715 107.641 36.8522 108.562 37.04ZM107.385 38.3884C107.863 38.4567 108.392 37.8252 108.255 37.5179C108.17 37.3302 107.897 37.4155 107.385 38.3884Z" fill="#23305F"/>
<path d="M109.228 19.8346C109.023 20.2443 108.75 20.6027 108.392 20.9271C107.572 21.6952 106.599 22.0878 105.541 22.0878C104.449 22.0878 103.39 21.644 102.537 20.8588L110.423 13.5021L110.252 13.2972C108.613 11.3172 106.429 10.1907 104.244 10.1907C102.622 10.1907 101.069 10.8393 99.7546 12.0512C98.2014 13.5021 97.4333 15.3114 97.5357 17.2572C97.6381 19.0495 98.4915 20.8929 99.9253 22.4462C100.932 23.5215 102.127 24.2896 103.39 24.6822C108.665 23.2143 109.177 20.415 109.228 19.8346ZM101.666 14.0141C102.332 13.3826 103.237 13.0412 104.193 13.0412C104.995 13.0412 105.78 13.2802 106.446 13.7069L100.932 18.8617C100.062 17.3426 100.369 15.226 101.666 14.0141Z" fill="#23305F"/>
<path d="M109.262 19.7667C108.886 19.8179 108.289 19.8009 107.93 19.6984C108.733 19.2546 109.654 18.6743 110.388 17.9574C110.9 17.4624 111.378 16.8991 111.822 16.2676C111.771 17.3088 112.061 18.4012 112.317 19.3059C112.505 19.9886 112.744 20.6372 113 21.2347C112.641 21.081 112.266 20.8762 111.925 20.6031C108.886 26.6284 103.424 24.6655 103.424 24.6655C108.903 23.1634 109.262 20.1593 109.262 19.7667Z" fill="#47B549"/>
</svg>
